<svg xmlns="http://www.w3.org/2000/svg" width="900" height="220" viewBox="0 0 900 220">
  <defs>
    <marker id="arr" markerWidth="8" markerHeight="6" refX="7" refY="3" orient="auto">
      <polygon points="0 0, 8 3, 0 6" fill="#004a99"/>
    </marker>
  </defs>
  <rect width="900" height="220" fill="#f7fafd" rx="14"/>
  <rect x="0" y="0" width="900" height="46" fill="#003366" rx="14"/>
  <rect x="0" y="32" width="900" height="14" fill="#003366"/>
  <text x="450" y="26" font-family="Arial,sans-serif" font-size="15" font-weight="bold" fill="#fff" text-anchor="middle" dominant-baseline="middle">Chat with Your Data Solution Accelerator</text>
  <rect x="30" y="64" width="168" height="118" rx="9" fill="#526072"/>
  <text x="114" y="104" font-family="Arial,sans-serif" font-size="13" font-weight="bold" fill="#fff" text-anchor="middle">User Question</text>
  <text x="114" y="124" font-family="Arial,sans-serif" font-size="11" fill="#c8d8ea" text-anchor="middle">Natural language query</text>
  <text x="114" y="142" font-family="Arial,sans-serif" font-size="11" fill="#c8d8ea" text-anchor="middle">Entra ID auth</text>
  <line x1="198" y1="123" x2="226" y2="123" stroke="#004a99" stroke-width="2" marker-end="url(#arr)"/>
  <rect x="226" y="64" width="168" height="118" rx="9" fill="#004a99"/>
  <text x="310" y="100" font-family="Arial,sans-serif" font-size="13" font-weight="bold" fill="#fff" text-anchor="middle">Retrieval Engine</text>
  <text x="310" y="118" font-family="Arial,sans-serif" font-size="11" fill="#c8d8ea" text-anchor="middle">Azure AI Search</text>
  <text x="310" y="136" font-family="Arial,sans-serif" font-size="11" fill="#c8d8ea" text-anchor="middle">Vector + Keyword</text>
  <text x="310" y="154" font-family="Arial,sans-serif" font-size="11" fill="#c8d8ea" text-anchor="middle">Your private data</text>
  <line x1="394" y1="123" x2="422" y2="123" stroke="#004a99" stroke-width="2" marker-end="url(#arr)"/>
  <rect x="422" y="64" width="168" height="118" rx="9" fill="#003366"/>
  <text x="506" y="100" font-family="Arial,sans-serif" font-size="13" font-weight="bold" fill="#fff" text-anchor="middle">Azure OpenAI</text>
  <text x="506" y="118" font-family="Arial,sans-serif" font-size="11" fill="#c8d8ea" text-anchor="middle">Grounded generation</text>
  <text x="506" y="136" font-family="Arial,sans-serif" font-size="11" fill="#c8d8ea" text-anchor="middle">Retrieved context</text>
  <text x="506" y="154" font-family="Arial,sans-serif" font-size="11" fill="#c8d8ea" text-anchor="middle">Private endpoint</text>
  <line x1="590" y1="123" x2="618" y2="123" stroke="#004a99" stroke-width="2" marker-end="url(#arr)"/>
  <rect x="618" y="64" width="252" height="118" rx="9" fill="#003878"/>
  <text x="744" y="100" font-family="Arial,sans-serif" font-size="13" font-weight="bold" fill="#fff" text-anchor="middle">Grounded Answer</text>
  <text x="744" y="118" font-family="Arial,sans-serif" font-size="11" fill="#c8d8ea" text-anchor="middle">Cited from your data</text>
  <text x="744" y="136" font-family="Arial,sans-serif" font-size="11" fill="#c8d8ea" text-anchor="middle">Source attribution</text>
  <text x="744" y="154" font-family="Arial,sans-serif" font-size="11" fill="#c8d8ea" text-anchor="middle">Enterprise best practices</text>
</svg>
