<svg xmlns="http://www.w3.org/2000/svg" width="900" height="220" viewBox="0 0 900 220">
  <defs>
    <marker id="arr" markerWidth="8" markerHeight="6" refX="7" refY="3" orient="auto">
      <polygon points="0 0, 8 3, 0 6" fill="#004a99"/>
    </marker>
  </defs>
  <rect width="900" height="220" fill="#f7fafd" rx="14"/>
  <rect x="0" y="0" width="900" height="46" fill="#003366" rx="14"/>
  <rect x="0" y="32" width="900" height="14" fill="#003366"/>
  <text x="450" y="26" font-family="Arial,sans-serif" font-size="15" font-weight="bold" fill="#fff" text-anchor="middle" dominant-baseline="middle">Content Processing Solution Accelerator</text>
  <rect x="30" y="64" width="168" height="118" rx="9" fill="#526072"/>
  <text x="114" y="100" font-family="Arial,sans-serif" font-size="13" font-weight="bold" fill="#fff" text-anchor="middle">Raw Documents</text>
  <text x="114" y="118" font-family="Arial,sans-serif" font-size="11" fill="#c8d8ea" text-anchor="middle">PDF · Word · Images</text>
  <text x="114" y="136" font-family="Arial,sans-serif" font-size="11" fill="#c8d8ea" text-anchor="middle">Multi-modal content</text>
  <text x="114" y="154" font-family="Arial,sans-serif" font-size="11" fill="#c8d8ea" text-anchor="middle">Unstructured files</text>
  <line x1="198" y1="123" x2="226" y2="123" stroke="#004a99" stroke-width="2" marker-end="url(#arr)"/>
  <rect x="226" y="64" width="168" height="118" rx="9" fill="#004a99"/>
  <text x="310" y="100" font-family="Arial,sans-serif" font-size="13" font-weight="bold" fill="#fff" text-anchor="middle">AI Extraction</text>
  <text x="310" y="118" font-family="Arial,sans-serif" font-size="11" fill="#c8d8ea" text-anchor="middle">Azure AI Foundry</text>
  <text x="310" y="136" font-family="Arial,sans-serif" font-size="11" fill="#c8d8ea" text-anchor="middle">Content Understanding</text>
  <text x="310" y="154" font-family="Arial,sans-serif" font-size="11" fill="#c8d8ea" text-anchor="middle">Azure OpenAI</text>
  <line x1="394" y1="123" x2="422" y2="123" stroke="#004a99" stroke-width="2" marker-end="url(#arr)"/>
  <rect x="422" y="64" width="168" height="118" rx="9" fill="#003366"/>
  <text x="506" y="100" font-family="Arial,sans-serif" font-size="13" font-weight="bold" fill="#fff" text-anchor="middle">Schema Mapping</text>
  <text x="506" y="118" font-family="Arial,sans-serif" font-size="11" fill="#c8d8ea" text-anchor="middle">Apply target schema</text>
  <text x="506" y="136" font-family="Arial,sans-serif" font-size="11" fill="#c8d8ea" text-anchor="middle">Validate structure</text>
  <text x="506" y="154" font-family="Arial,sans-serif" font-size="11" fill="#c8d8ea" text-anchor="middle">Field extraction</text>
  <line x1="590" y1="123" x2="618" y2="123" stroke="#004a99" stroke-width="2" marker-end="url(#arr)"/>
  <rect x="618" y="64" width="252" height="118" rx="9" fill="#003878"/>
  <text x="744" y="100" font-family="Arial,sans-serif" font-size="13" font-weight="bold" fill="#fff" text-anchor="middle">Cosmos DB Store</text>
  <text x="744" y="118" font-family="Arial,sans-serif" font-size="11" fill="#c8d8ea" text-anchor="middle">Structured output</text>
  <text x="744" y="136" font-family="Arial,sans-serif" font-size="11" fill="#c8d8ea" text-anchor="middle">Searchable data</text>
  <text x="744" y="154" font-family="Arial,sans-serif" font-size="11" fill="#c8d8ea" text-anchor="middle">API-accessible records</text>
</svg>
